<?xml version="1.0" encoding="UTF-8" standalone="no"?>
<svg
   xmlns:dc="http://purl.org/dc/elements/1.1/"
   xmlns:cc="http://creativecommons.org/ns#"
   xmlns:rdf="http://www.w3.org/1999/02/22-rdf-syntax-ns#"
   xmlns:svg="http://www.w3.org/2000/svg"
   xmlns="http://www.w3.org/2000/svg"
   xmlns:sodipodi="http://sodipodi.sourceforge.net/DTD/sodipodi-0.dtd"
   xmlns:inkscape="http://www.inkscape.org/namespaces/inkscape"
   width="240"
   height="240"
   viewBox="0 0 240 240"
   class="feather feather-radio"
   version="1.1"
   id="svg4489"
   sodipodi:docname="RemoteRadio-logo.svg"
   inkscape:version="0.92.1 r15371"
   style="fill:none;stroke:currentColor;stroke-width:2;stroke-linecap:round;stroke-linejoin:round"
   inkscape:export-filename="/media/jerry/C85825B058259DE6/PhD/Software/P2P/P2P-Logo.svg.png"
   inkscape:export-xdpi="300"
   inkscape:export-ydpi="300">
  <metadata
     id="metadata4495">
    <rdf:RDF>
      <cc:Work
         rdf:about="">
        <dc:format>image/svg+xml</dc:format>
        <dc:type
           rdf:resource="http://purl.org/dc/dcmitype/StillImage" />
        <dc:title />
      </cc:Work>
    </rdf:RDF>
  </metadata>
  <defs
     id="defs4493" />
  <sodipodi:namedview
     pagecolor="#ffffff"
     bordercolor="#666666"
     borderopacity="1"
     objecttolerance="10"
     gridtolerance="10"
     guidetolerance="10"
     inkscape:pageopacity="0"
     inkscape:pageshadow="2"
     inkscape:window-width="1280"
     inkscape:window-height="737"
     id="namedview4491"
     showgrid="false"
     inkscape:zoom="2.0476634"
     inkscape:cx="110.8908"
     inkscape:cy="126.31411"
     inkscape:window-x="-8"
     inkscape:window-y="-8"
     inkscape:window-maximized="1"
     inkscape:current-layer="layer2"
     showguides="true" />
  <path
     d="m 166.03136,73.633088 a 65.138729,65.138729 0 0 1 0,92.171302 m -92.062726,-0.10857 a 65.138729,65.138729 0 0 1 0,-92.171302 M 196.75513,42.909316 a 108.56455,108.56455 0 0 1 0,153.510274 m -153.510264,0 a 108.56455,108.56455 0 0 1 0,-153.510274"
     id="path4487"
     style="fill:none;fill-opacity:1;stroke:#000000;stroke-width:13.5;stroke-miterlimit:4;stroke-dasharray:none;stroke-opacity:1"
     inkscape:connector-curvature="0" />
  <g
     inkscape:groupmode="layer"
     id="layer1"
     inkscape:label="Mic"
     style="display:inline"
     transform="translate(0,216)">
    <g
       id="g5095"
       style="stroke:#000000;stroke-opacity:1"
       transform="matrix(10.856455,0,0,10.856455,-10.74608,-226.613)">
      <path
         style="stroke:#000000;stroke-width:1.00402856;stroke-opacity:1"
         id="path4497"
         d="M 12.043165,7.3161382 A 1.6403047,1.3827703 0 0 0 10.40286,8.6989086 v 3.6873874 a 1.640305,1.3827706 0 0 0 3.28061,0 V 8.6989086 A 1.6403047,1.3827703 0 0 0 12.043165,7.3161382 Z"
         inkscape:connector-curvature="0" />
      <path
         style="stroke:#000000;stroke-width:1.0935365;stroke-opacity:1"
         id="path4499"
         d="m 15.870543,11.035225 v 1.093537 a 3.8273779,3.8273779 0 0 1 -7.6547558,0 v -1.093537"
         inkscape:connector-curvature="0" />
      <line
         style="stroke:#000000;stroke-width:1.0935365;stroke-opacity:1"
         id="line4501"
         y2="18.143211"
         x2="12.043164"
         y1="15.95614"
         x1="12.043164" />
      <line
         style="stroke:#000000;stroke-width:1.0935365;stroke-opacity:1"
         id="line4503"
         y2="18.143211"
         x2="14.230238"
         y1="18.143211"
         x1="9.8560915" />
    </g>
  </g>
  <g
     inkscape:groupmode="layer"
     id="layer2"
     inkscape:label="Text">
    <g
       transform="translate(-5.731391,-4)"
       id="g4506"
       style="font-style:normal;font-weight:normal;line-height:0%;font-family:sans-serif;letter-spacing:0px;word-spacing:0px;fill:none;fill-opacity:1;stroke:#080800;stroke-width:0;stroke-linecap:butt;stroke-linejoin:miter;stroke-miterlimit:4;stroke-dasharray:none;stroke-dashoffset:0;stroke-opacity:1">
      <g
         aria-label="Remote"
         style="font-style:normal;font-weight:normal;line-height:0%;font-family:sans-serif;text-align:start;letter-spacing:0px;word-spacing:0px;writing-mode:lr-tb;text-anchor:start;fill:#000000;fill-opacity:1;stroke:#080800;stroke-width:4.0999999;stroke-miterlimit:4;stroke-dasharray:none;stroke-opacity:1"
         id="text4498">
        <path
           d="m 67.981411,43.197605 v 7.485352 h 2.648926 q 0.529785,0 0.751953,0.205078 0.222168,0.187988 0.222168,0.512695 0,0.307617 -0.222168,0.512695 -0.222168,0.205079 -0.751953,0.205079 h -6.015625 q -0.512696,0 -0.734864,-0.205079 -0.222167,-0.205078 -0.222167,-0.512695 0,-0.324707 0.222167,-0.512695 0.222168,-0.205078 0.734864,-0.205078 h 1.931152 V 33.558933 h -1.931152 q -0.512696,0 -0.734864,-0.187988 -0.222167,-0.205078 -0.222167,-0.529785 0,-0.324707 0.222167,-0.512695 0.222168,-0.205079 0.734864,-0.205079 h 8.68164 q 2.683106,0 4.511719,1.708985 1.845703,1.691894 1.845703,3.828125 0,1.538086 -1.145019,2.905273 -1.12793,1.350098 -3.793946,2.25586 1.538086,1.05957 2.631836,2.392578 1.09375,1.333008 3.503418,5.46875 h 1.09375 q 0.512696,0 0.734864,0.205078 0.222168,0.187988 0.222168,0.512695 0,0.307617 -0.222168,0.512695 -0.222168,0.205079 -0.734864,0.205079 h -1.914062 q -2.666016,-4.768067 -4.135742,-6.391602 -1.452637,-1.623535 -3.34961,-2.529297 z m 0,-1.435547 h 3.913574 q 1.879883,0 3.400879,-0.683593 1.538086,-0.683594 2.22168,-1.606446 0.700683,-0.922851 0.700683,-1.879883 0,-1.435546 -1.452636,-2.734375 -1.435547,-1.298828 -3.503418,-1.298828 h -5.280762 z"
           style="font-style:normal;font-variant:normal;font-weight:normal;font-stretch:normal;font-size:35px;line-height:100%;font-family:'Courier New';-inkscape-font-specification:'Courier New, Normal';font-variant-ligatures:normal;font-variant-caps:normal;font-variant-numeric:normal;font-feature-settings:normal;text-align:start;writing-mode:lr-tb;text-anchor:start"
           id="path4495" />
        <path
           d="M 101.40915,45.060398 H 86.780239 q 0.375977,2.785645 2.324219,4.494629 1.965332,1.691895 4.853515,1.691895 1.606446,0 3.3667,-0.529786 1.760254,-0.529785 2.871097,-1.401367 0.3247,-0.256347 0.56396,-0.256347 0.27344,0 0.47852,0.222168 0.20508,0.205078 0.20508,0.495605 0,0.290527 -0.27344,0.563965 -0.82031,0.854492 -2.922366,1.606445 -2.084961,0.734863 -4.289551,0.734863 -3.691406,0 -6.169433,-2.409668 -2.460938,-2.426757 -2.460938,-5.861816 0,-3.127441 2.307129,-5.366211 2.324219,-2.238769 5.742188,-2.238769 3.520508,0 5.793457,2.307128 2.272954,2.29004 2.238774,5.947266 z m -1.452641,-1.452637 q -0.427246,-2.375488 -2.25586,-3.862304 -1.811523,-1.486817 -4.32373,-1.486817 -2.512207,0 -4.323731,1.469727 -1.811523,1.469726 -2.255859,3.879394 z"
           style="font-style:normal;font-variant:normal;font-weight:normal;font-stretch:normal;font-size:35px;line-height:100%;font-family:'Courier New';-inkscape-font-specification:'Courier New, Normal';font-variant-ligatures:normal;font-variant-caps:normal;font-variant-numeric:normal;font-feature-settings:normal;text-align:start;writing-mode:lr-tb;text-anchor:start"
           id="path4498" />
        <path
           d="m 108.09127,37.318699 v 1.452637 q 1.82862,-1.965332 3.67432,-1.965332 1.11084,0 1.94824,0.598144 0.83741,0.581055 1.40137,1.777344 0.95703,-1.196289 1.93115,-1.777344 0.99121,-0.598144 1.98242,-0.598144 1.55518,0 2.47803,1.0083 1.21338,1.298828 1.21338,2.836914 v 10.031739 h 1.21338 q 0.51269,0 0.73486,0.205078 0.22217,0.187988 0.22217,0.512695 0,0.307617 -0.22217,0.512695 -0.22217,0.205079 -0.73486,0.205079 h -2.64893 V 40.787937 q 0,-1.09375 -0.6665,-1.811523 -0.6665,-0.717774 -1.53809,-0.717774 -0.78613,0 -1.65771,0.598145 -0.87158,0.581055 -1.98242,2.307129 v 9.519043 h 1.19629 q 0.51269,0 0.73486,0.205078 0.22217,0.187988 0.22217,0.512695 0,0.307617 -0.22217,0.512695 -0.22217,0.205079 -0.73486,0.205079 h -2.64893 V 40.890476 q 0,-1.145019 -0.68359,-1.879883 -0.66651,-0.751953 -1.50391,-0.751953 -0.76904,0 -1.521,0.495606 -1.04248,0.700683 -2.1875,2.409668 v 9.519043 h 1.21338 q 0.5127,0 0.73487,0.205078 0.22216,0.187988 0.22216,0.512695 0,0.307617 -0.22216,0.512695 -0.22217,0.205079 -0.73487,0.205079 h -3.8623 q -0.5127,0 -0.73486,-0.205079 -0.22217,-0.205078 -0.22217,-0.512695 0,-0.324707 0.22217,-0.512695 0.22216,-0.205078 0.73486,-0.205078 h 1.21338 V 38.771336 h -1.21338 q -0.5127,0 -0.73486,-0.205079 -0.22217,-0.205078 -0.22217,-0.529785 0,-0.307617 0.22217,-0.512695 0.22216,-0.205078 0.73486,-0.205078 z"
           style="font-style:normal;font-variant:normal;font-weight:normal;font-stretch:normal;font-size:35px;line-height:100%;font-family:'Courier New';-inkscape-font-specification:'Courier New, Normal';font-variant-ligatures:normal;font-variant-caps:normal;font-variant-numeric:normal;font-feature-settings:normal;text-align:start;writing-mode:lr-tb;text-anchor:start"
           id="path4500" />
        <path
           d="m 143.63815,44.752781 q 0,3.28125 -2.3584,5.605469 -2.34131,2.324218 -5.65674,2.324218 -3.34961,0 -5.69092,-2.324218 -2.3413,-2.341309 -2.3413,-5.605469 0,-3.28125 2.3413,-5.605469 2.34131,-2.341308 5.69092,-2.341308 3.31543,0 5.65674,2.324218 2.3584,2.324219 2.3584,5.622559 z m -1.45264,0 q 0,-2.700195 -1.93115,-4.597168 -1.91406,-1.896973 -4.64844,-1.896973 -2.73437,0 -4.66552,1.914063 -1.91407,1.896972 -1.91407,4.580078 0,2.666016 1.91407,4.580078 1.93115,1.914063 4.66552,1.914063 2.73438,0 4.64844,-1.896973 1.93115,-1.914063 1.93115,-4.597168 z"
           style="font-style:normal;font-variant:normal;font-weight:normal;font-stretch:normal;font-size:35px;line-height:100%;font-family:'Courier New';-inkscape-font-specification:'Courier New, Normal';font-variant-ligatures:normal;font-variant-caps:normal;font-variant-numeric:normal;font-feature-settings:normal;text-align:start;writing-mode:lr-tb;text-anchor:start"
           id="path4502" />
        <path
           d="m 153.6528,37.318699 h 7.79297 q 0.51269,0 0.73486,0.205078 0.22217,0.205078 0.22217,0.529785 0,0.307617 -0.22217,0.512695 -0.22217,0.205079 -0.73486,0.205079 h -7.79297 v 9.553222 q 0,1.247559 0.99121,2.084961 1.0083,0.837403 2.93945,0.837403 1.45264,0 3.14453,-0.427247 1.6919,-0.444335 2.63184,-0.99121 0.3418,-0.222168 0.56396,-0.222168 0.27344,0 0.47852,0.222168 0.20508,0.205078 0.20508,0.495605 0,0.256348 -0.22217,0.478516 -0.54688,0.563964 -2.66602,1.230468 -2.10205,0.649414 -4.0332,0.649414 -2.51221,0 -3.99902,-1.179199 -1.48682,-1.179199 -1.48682,-3.178711 v -9.553222 h -2.64892 q -0.5127,0 -0.73487,-0.205079 -0.22217,-0.205078 -0.22217,-0.529785 0,-0.307617 0.22217,-0.512695 0.22217,-0.205078 0.73487,-0.205078 h 2.64892 v -4.238281 q 0,-0.512696 0.20508,-0.734864 0.20508,-0.222168 0.51269,-0.222168 0.32471,0 0.52979,0.222168 0.20508,0.222168 0.20508,0.734864 z"
           style="font-style:normal;font-variant:normal;font-weight:normal;font-stretch:normal;font-size:35px;line-height:100%;font-family:'Courier New';-inkscape-font-specification:'Courier New, Normal';font-variant-ligatures:normal;font-variant-caps:normal;font-variant-numeric:normal;font-feature-settings:normal;text-align:start;writing-mode:lr-tb;text-anchor:start"
           id="path4504" />
        <path
           d="m 185.35446,45.060398 h -14.62891 q 0.37598,2.785645 2.32422,4.494629 1.96533,1.691895 4.85352,1.691895 1.60644,0 3.3667,-0.529786 1.76025,-0.529785 2.87109,-1.401367 0.32471,-0.256347 0.56396,-0.256347 0.27344,0 0.47852,0.222168 0.20508,0.205078 0.20508,0.495605 0,0.290527 -0.27344,0.563965 -0.82031,0.854492 -2.92236,1.606445 -2.08496,0.734863 -4.28955,0.734863 -3.69141,0 -6.16944,-2.409668 -2.46094,-2.426757 -2.46094,-5.861816 0,-3.127441 2.30713,-5.366211 2.32422,-2.238769 5.74219,-2.238769 3.52051,0 5.79346,2.307128 2.27295,2.29004 2.23877,5.947266 z m -1.45264,-1.452637 q -0.42724,-2.375488 -2.25586,-3.862304 -1.81152,-1.486817 -4.32373,-1.486817 -2.51221,0 -4.32373,1.469727 -1.81152,1.469726 -2.25586,3.879394 z"
           style="font-style:normal;font-variant:normal;font-weight:normal;font-stretch:normal;font-size:35px;line-height:100%;font-family:'Courier New';-inkscape-font-specification:'Courier New, Normal';font-variant-ligatures:normal;font-variant-caps:normal;font-variant-numeric:normal;font-feature-settings:normal;text-align:start;writing-mode:lr-tb;text-anchor:start"
           id="path4506" />
      </g>
    </g>
    <g
       aria-label="Radio"
       style="font-style:normal;font-variant:normal;font-weight:normal;font-stretch:normal;line-height:0%;font-family:'Jenna Sue';-inkscape-font-specification:'Jenna Sue, Normal';text-align:start;letter-spacing:0px;word-spacing:0px;writing-mode:lr-tb;text-anchor:start;fill:#000000;fill-opacity:1;stroke:#080800;stroke-width:0;stroke-linecap:butt;stroke-linejoin:miter;stroke-miterlimit:4;stroke-dasharray:none;stroke-opacity:0.82010582"
       id="text4497">
      <path
         d="m 60.925999,206.92384 q 0,0.97657 1.367187,2.63672 1.416016,1.61133 4.199219,4.00391 1.806641,1.51367 3.710937,2.97851 1.953125,1.41602 3.857422,2.88086 0.830078,0.6836 2.148438,1.80664 1.318359,1.07422 3.076172,2.53907 1.269531,0.97656 2.636718,1.95312 1.416016,0.97656 3.027344,1.95313 1.074219,0.83007 2.392578,1.80664 1.31836,0.97656 3.027344,2.09961 0.976563,0.58593 1.513672,2.14843 0.537109,1.51368 0.634766,3.95508 l -0.439454,1.26953 -0.488281,0.24414 q -0.488281,0 -1.318359,-0.43945 -0.78125,-0.39062 -2.001953,-1.17187 -0.244141,-0.14649 -2.246094,-1.07422 -1.953125,-0.92774 -5.664063,-2.63672 -2.050781,-0.87891 -3.759765,-1.95313 -1.708985,-1.12304 -3.125,-2.34375 -0.830078,-0.73242 -2.148438,-1.61132 -1.269531,-0.87891 -3.027343,-1.9043 -1.806641,-1.02539 -3.125,-1.95313 -1.31836,-0.92773 -2.09961,-1.5625 -2.636719,-2.14843 -4.296875,-3.27148 -1.660156,-1.12305 -2.294922,-1.12305 -0.488281,0.6836 -0.537109,1.41602 -0.585938,2.29492 -1.269531,5.81054 -0.634766,3.4668 -1.416016,8.10547 0,0.83008 -0.292969,1.22071 -0.292968,0.43945 -0.878906,0.43945 -1.904297,0 -2.880859,-0.92773 -0.976563,-0.92774 -0.976563,-2.78321 0,-2.49023 0.292969,-5.22461 0.341797,-2.73437 1.074219,-5.76172 0.24414,-1.31836 0.341797,-2.34375 0.146484,-1.07421 0.146484,-1.95312 0,-2.24609 -1.953125,-3.85742 -1.904297,-1.61133 -1.904297,-2.29492 0,-1.07422 0.292969,-1.85547 0.341797,-0.83008 0.976562,-1.31836 1.611328,-1.02539 2.978516,-1.95313 0.341797,-0.19531 0.439453,-0.63476 0.146484,-0.48828 0.146484,-1.31836 0,-0.48828 0,-1.02539 0,-0.58594 0,-1.07422 0.146485,-4.34571 0.244141,-9.03321 0,-0.34179 0,-1.07421 0,-0.73243 -0.09766,-1.9043 -0.09766,-0.87891 -0.04883,-1.61133 0.04883,-0.78125 0.04883,-1.41601 -0.292969,-0.97657 -0.53711,-1.66016 -0.195312,-0.73242 -0.195312,-1.36719 0,-0.58594 0.09766,-1.80664 0.09766,-1.26953 0.09766,-1.80664 0,-0.68359 -0.146484,-1.9043 -0.09766,-1.2207 -0.09766,-1.85547 0,-1.75781 0.78125,-3.36914 0.830078,-1.61132 2.490234,-3.17382 1.611328,-1.36719 3.271485,-2.05079 1.708984,-0.73242 3.466796,-0.73242 0.830079,0 2.441407,0.14649 1.660156,0.0977 2.58789,0.0977 0.634766,0 3.466797,1.07422 1.123047,0.0977 2.001953,0.29297 0.878907,0.14649 1.416016,0.3418 1.220703,0.58594 1.904297,0.92773 0.683594,0.29297 0.976562,0.3418 0.830078,0.29297 1.416016,0.48828 0.634766,0.19531 1.025391,0.48828 0.634765,0.29297 1.464843,0.6836 0.878907,0.39062 1.953125,0.8789 1.757813,0.87891 3.271485,2.05078 1.5625,1.17188 2.929687,2.53907 1.5625,1.75781 2.34375,3.46679 0.78125,1.66016 0.78125,3.32031 0,0.48829 -0.09766,1.41602 -0.04883,0.87891 -0.244141,2.00195 -0.146484,1.41602 -1.464843,3.07618 -1.31836,1.61132 -3.808594,3.56445 -2.197266,1.70898 -4.101563,2.88086 -1.904297,1.12304 -3.515625,1.61133 -0.634765,0.43945 -0.976562,0.83007 -0.488281,0.48829 -2.050781,1.36719 -1.5625,0.87891 -4.248047,2.19727 -4.882813,2.39258 -6.933594,3.17383 -2.050781,0.73242 -2.050781,1.61132 z m -5.126953,-23.53515 q 0.927734,-0.6836 1.757812,-1.31836 0.830078,-0.6836 2.148438,-0.6836 0.585937,0 1.416015,1.31836 0.878906,1.26953 0.878906,1.9043 0,0.3418 -0.24414,1.5625 -0.244141,1.2207 -0.78125,3.32031 -1.123047,4.73633 -1.269531,5.95703 -0.146485,1.17188 -0.634766,3.71094 -0.195313,0.63477 -0.390625,1.66016 0,0.43945 0.146484,0.63476 0.195313,0.19532 0.488282,0.19532 9.716796,-4.88282 10.058593,-5.07813 0.390625,-0.0977 0.830078,-0.24414 0.439454,-0.19531 0.830079,-0.39062 l 0.732421,-0.92774 q 2.832032,-1.80664 5.859375,-3.85742 1.904297,-1.46484 2.832032,-2.88086 0.927734,-1.41602 0.927734,-2.83203 0,-1.80664 -2.099609,-3.56445 -2.09961,-1.75782 -6.298828,-3.36915 -3.564454,-1.41601 -6.494141,-2.05078 -2.929688,-0.68359 -5.322266,-0.68359 -3.125,0 -4.736328,1.12305 -1.5625,1.07422 -1.5625,3.22265 0,1.66016 0.244141,2.53907 0.24414,0.83007 0.683594,0.73242 z"
         style="font-style:normal;font-variant:normal;font-weight:normal;font-stretch:normal;font-size:100px;line-height:125%;font-family:Mistral;-inkscape-font-specification:'Mistral, Normal';font-variant-ligatures:normal;font-variant-caps:normal;font-variant-numeric:normal;font-feature-settings:normal;text-align:start;writing-mode:lr-tb;text-anchor:start"
         id="path4509" />
      <path
         d="m 90.076389,217.6172 4.44336,-2.92968 q 0.24414,-0.24415 0.585937,-0.63477 0.341797,-0.43945 0.78125,-1.2207 0.341797,-0.63477 0.878906,-1.07422 0.585938,-0.43946 1.31836,-0.78125 0.390625,-0.48828 1.123047,-1.22071 0.732422,-0.73242 1.855471,-1.70898 0.53711,-0.29297 1.36718,-0.83008 0.83008,-0.58594 1.80665,-1.51367 4.44335,-4.19922 7.76367,-6.29883 3.36914,-2.09961 5.66406,-2.09961 1.26953,0 1.85547,0.53711 0.63476,0.53711 0.63476,1.51367 0,1.02539 -0.39062,1.80664 -0.3418,0.78125 -1.12305,1.31836 -1.2207,0.87891 -2.63672,1.95313 -0.78125,1.02539 -1.90429,2.19726 -1.12305,1.12305 -2.63672,2.2461 -0.48828,0.63476 -0.83008,1.12305 -0.24414,0.24414 -0.92773,0.8789 -0.6836,0.63477 -1.80665,1.46485 -0.48828,1.07421 -2.14843,2.7832 -1.61133,1.70898 -4.34571,4.10156 -0.34179,0.3418 -1.2207,1.5625 -0.878905,1.2207 -2.294921,3.22266 l 0.341797,0.43945 q 1.074219,-0.3418 2.246094,-1.17187 1.17187,-0.83008 2.58789,-2.19727 1.66016,-1.51367 2.68555,-2.44141 1.07422,-0.97656 1.51367,-1.26953 0.3418,-0.19531 0.68359,-0.39062 0.3418,-0.19532 0.78125,-0.48828 2.2461,-2.68555 4.19922,-3.95508 1.95313,-1.31836 3.61328,-1.31836 1.02539,0 1.5625,0.83008 0.53711,0.78125 0.63477,2.39257 -0.0977,2.44141 -0.0977,4.6875 -0.0488,1.5625 0.83008,2.83204 0.92773,1.2207 2.39258,1.2207 0.43945,0 0.83008,-0.24414 0.43945,-0.24414 0.8789,-0.63477 0.3418,-0.43945 0.63477,-0.83008 0.3418,-0.39062 0.68359,-0.78125 0.19531,-0.0976 0.53711,-0.34179 0.39063,-0.24414 0.73242,-0.58594 0.6836,1.46484 1.12305,2.58789 0.48828,1.07422 0.73242,1.9043 -1.12304,1.02539 -2.24609,2.14844 -1.07422,1.07421 -2.29492,2.05078 -1.46485,1.12304 -2.83203,1.70898 -1.36719,0.53711 -2.73438,0.53711 -3.17383,0 -4.88281,-1.80664 -1.70899,-1.80664 -2.00196,-5.46875 0,-0.43945 -0.14648,-0.87891 -0.0977,-0.48828 -0.48828,-0.97656 -0.24414,0.24414 -0.53711,0.53711 -0.29297,0.24414 -0.68359,0.68359 -0.63477,0.48829 -1.61133,1.22071 -0.92774,0.73242 -2.19727,1.75781 -1.70898,1.75781 -2.88086,2.88086 -1.17187,1.12305 -1.66015,1.61133 -0.976566,0.83008 -2.294925,1.66015 -1.269531,0.83008 -2.880859,1.70899 -1.025391,0.53711 -1.757813,0.83008 -0.732422,0.34179 -1.074219,0.34179 -2.34375,0 -3.466797,-1.12304 -1.123046,-1.17188 -1.123046,-3.56446 0,-1.31836 0.585937,-2.49023 0.537109,-1.2207 1.660156,-2.34375 0.09766,-0.63477 0.09766,-1.02539 0,-0.24414 -0.146485,-0.48828 -0.09766,-0.29297 -0.292969,-0.63477 -0.292968,-0.68359 -0.634765,-1.51367 -0.390625,-0.87891 -0.830078,-1.85547 0.195312,-0.19531 0.585937,-0.73242 0.341797,-0.58594 0.830078,-1.41602 z"
         style="font-style:normal;font-variant:normal;font-weight:normal;font-stretch:normal;font-size:100px;line-height:125%;font-family:Mistral;-inkscape-font-specification:'Mistral, Normal';font-variant-ligatures:normal;font-variant-caps:normal;font-variant-numeric:normal;font-feature-settings:normal;text-align:start;writing-mode:lr-tb;text-anchor:start"
         id="path4511" />
      <path
         d="m 126.01389,219.76564 0.29297,-0.3418 0.14648,-0.48828 q 0.87891,-1.07422 1.51367,-1.66015 0.63477,-0.63477 0.97657,-0.97657 0.24414,-0.24414 1.07422,-0.63476 0.83007,-0.39063 2.24609,-0.97656 l 0.63476,-0.39063 q 0.3418,-0.53711 1.22071,-1.5625 0.8789,-1.02539 2.09961,-2.34375 0.24414,-0.29297 0.73242,-0.63477 0.48828,-0.34179 1.02539,-0.8789 1.17187,-1.12305 2.34375,-2.29492 1.17187,-1.22071 2.19727,-2.39258 0.43945,-0.43945 1.80664,-1.5625 1.36718,-1.17188 3.71093,-3.22266 0.3418,-0.24414 1.22071,-0.68359 0.8789,-0.48828 2.29492,-1.12305 0.63476,-0.29297 0.92773,-0.92773 0.3418,-0.6836 0.3418,-1.70899 0.39062,-0.63476 0.73242,-1.51367 0.39063,-0.92773 0.73242,-2.14844 0.48828,-1.51367 0.73243,-2.4414 0.29296,-0.97657 0.43945,-1.31836 0.83008,-2.19727 2.24609,-5.12696 1.41602,-2.97851 3.36914,-6.7871 0.97657,-2.00196 2.29492,-4.44336 0.83008,-1.22071 1.85547,-1.80664 1.02539,-0.63477 2.14844,-0.63477 0.87891,0 1.26953,0.68359 0.43946,0.6836 0.43946,2.00196 0,2.09961 -0.29297,4.0039 -0.29297,1.9043 -1.07422,3.56446 -0.14649,0.34179 -0.24414,1.02539 -0.0977,0.68359 -0.19532,1.66015 -0.0488,0.6836 -0.39062,1.31836 -0.29297,0.63477 -0.78125,1.17188 0,0.34179 -0.0977,0.83008 -0.0976,0.43945 -0.19531,1.07421 l -0.68359,0.87891 q -0.0977,0.29297 -0.0977,0.73242 0,0.39063 0,0.83008 0,0.29297 -0.3418,1.17188 -0.34179,0.83007 -1.02539,2.39257 -0.78125,1.66016 -1.26953,2.63672 -0.43945,0.97656 -0.48828,1.22071 -0.19531,0.24414 -0.53711,0.78125 -0.29297,0.5371 -0.73242,1.2207 l 0.14648,1.07422 -3.125,11.23047 q 0,1.85546 0.0488,3.17382 0.0488,1.31836 0.29297,2.09961 0.24414,0.83008 0.78125,2.05078 0.58594,1.17188 1.46484,2.53907 0.53711,0.92773 1.26954,1.36718 0.73242,0.39063 1.5625,0.39063 0.92773,0 1.85546,-0.48828 0.97657,-0.53711 1.95313,-1.61133 0.58594,1.26953 1.07422,2.39258 0.53711,1.12305 0.8789,2.09961 -0.24414,0.14648 -1.07421,1.02539 -0.78125,0.83008 -2.09961,2.39258 -0.78125,0.92773 -1.95313,1.36718 -1.12305,0.39063 -2.7832,0.39063 -3.66211,0 -5.95703,-1.9043 -2.29492,-1.90429 -3.22266,-5.71289 -0.19531,-0.78125 -0.3418,-1.36719 -0.14648,-0.58593 -0.29296,-1.07421 -0.3418,-0.92774 -1.17188,-2.00196 -0.3418,0.48828 -0.53711,0.73242 -0.58594,0.39063 -1.31836,1.12305 -0.68359,0.73242 -1.41601,1.85547 -0.14649,0.48828 -0.53711,1.2207 -0.39063,0.6836 -1.07422,1.66016 -1.5625,1.80664 -3.17383,3.66211 -1.61133,1.80664 -3.22266,3.56445 -2.19726,2.44141 -4.05273,3.56445 -1.85547,1.17188 -3.22266,1.17188 -2.4414,0 -3.61328,-1.17188 -1.17187,-1.12304 -1.17187,-3.56445 0,-1.12305 0.83007,-3.125 0.83008,-2.05078 0.83008,-3.02734 l -0.29297,-0.78125 z m 24.56055,-13.96484 q 0,-0.24414 -0.19532,-0.73243 -0.73242,0.73243 -1.80664,1.70899 -1.07422,0.97656 -2.53906,2.14844 -0.3418,0.78125 -1.5625,2.49023 -1.2207,1.66016 -3.41797,4.15039 -0.63476,0.73242 -1.70898,2.53906 -1.07422,1.75782 -2.63672,4.34571 -0.53711,1.02539 -1.12305,2.49023 0,0.29297 0.39063,0.63477 1.46484,-0.43946 3.56445,-2.53907 2.14844,-2.14843 5.07812,-5.9082 3.02735,-4.0039 4.49219,-6.78711 1.46485,-2.83203 1.46485,-4.54101 z"
         style="font-style:normal;font-variant:normal;font-weight:normal;font-stretch:normal;font-size:100px;line-height:125%;font-family:Mistral;-inkscape-font-specification:'Mistral, Normal';font-variant-ligatures:normal;font-variant-caps:normal;font-variant-numeric:normal;font-feature-settings:normal;text-align:start;writing-mode:lr-tb;text-anchor:start"
         id="path4513" />
      <path
         d="m 166.8342,219.76564 0.29297,-0.3418 0.14648,-0.48828 q 1.31836,-1.80664 4.63868,-4.6875 3.32031,-2.92969 4.58984,-4.73633 0.48828,-0.78125 1.12305,-1.12304 0.63476,-0.3418 1.26953,-0.3418 1.70898,0 2.88086,0.87891 1.17187,0.83007 1.5625,2.53906 0.34179,1.51367 0.63476,3.07617 0.29297,1.51367 0.48828,3.07617 0.3418,0.97657 0.83008,2.97852 0.48828,1.95312 0.73242,2.24609 0.24415,0.48828 0.73243,0.73242 0.48828,0.19532 1.2207,0.19532 0.87891,0 1.80664,-0.29297 0.92773,-0.3418 1.9043,-1.12305 0.73242,-0.63476 1.51367,-1.26953 0.83008,-0.68359 1.61133,-1.31836 l 1.95312,4.49219 q -0.78125,0.78125 -2.09961,1.80664 -1.26953,0.97656 -3.07617,2.29492 -2.00195,1.46484 -3.41797,2.19727 -1.41601,0.68359 -2.14844,0.68359 -4.44335,0 -5.76171,-1.02539 -1.31836,-1.02539 -2.92969,-5.71289 -0.19531,-0.39063 -0.58594,-0.92774 -0.39062,-0.53711 -0.87891,-1.26953 -0.58593,-1.12304 -1.02539,-1.66015 -0.43945,-0.58594 -0.73242,-0.58594 -0.78125,0 -2.09961,1.07422 -1.31836,1.02539 -3.22265,3.125 -0.24414,-0.63477 -0.58594,-1.51367 -0.39063,-0.87891 -0.78125,-2.05079 -0.0977,-0.29296 -0.24414,-0.5371 -0.14649,-0.24415 -0.3418,-0.39063 z m 20.41016,-38.52539 q 1.2207,0 1.75781,0.48828 0.58594,0.48828 0.58594,1.41602 -0.29297,1.36718 -0.48828,2.29492 -0.48828,1.75781 -0.87891,2.88086 -0.3418,1.12304 -0.53711,1.61133 -0.43945,1.07421 -1.2207,1.90429 -0.73242,0.78125 -1.80664,1.41602 -1.12305,0.78125 -1.9043,1.12305 -0.73242,0.29296 -1.02539,0.24414 -0.83008,-0.0977 -1.61133,-0.14649 -0.73242,-0.0976 -1.46484,-0.0976 -0.63477,-0.3418 -1.02539,-1.31836 -0.3418,-0.97657 -0.3418,-2.63672 0,-1.46485 1.75781,-3.66211 1.80664,-2.2461 3.17383,-2.39258 0.83008,-1.02539 1.95313,-2.34375 0.48828,-0.3418 1.26953,-0.53711 0.78125,-0.24414 1.80664,-0.24414 z"
         style="font-style:normal;font-variant:normal;font-weight:normal;font-stretch:normal;font-size:100px;line-height:125%;font-family:Mistral;-inkscape-font-specification:'Mistral, Normal';font-variant-ligatures:normal;font-variant-caps:normal;font-variant-numeric:normal;font-feature-settings:normal;text-align:start;writing-mode:lr-tb;text-anchor:start"
         id="path4515" />
      <path
         d="m 194.76389,219.76564 q 0.3418,-0.3418 0.73242,-0.87891 0.3418,-0.58593 0.83008,-1.26953 l 3.75976,-2.58789 q 0.6836,-0.83008 2.09961,-2.09961 1.41602,-1.31836 3.51563,-3.17383 0.24414,-0.5371 0.78125,-1.2207 0.58594,-0.73242 1.36719,-1.41601 0.68359,-0.63477 1.36718,-1.17188 0.6836,-0.58594 1.26954,-1.12305 0.73242,-0.73242 1.36718,-1.46484 0.6836,-0.73242 1.36719,-1.41602 0.78125,-0.68359 1.61133,-1.07421 0.83008,-0.39063 1.80664,-0.39063 1.07422,0 1.61133,0.29297 0.58593,0.24414 0.63476,0.73242 -0.48828,1.12305 -1.02539,2.2461 l 0.29297,0.43945 q 2.14844,-0.83008 3.36914,-1.2207 1.2207,-0.39063 1.5625,-0.39063 3.56445,0 5.32227,2.19727 1.80664,2.14843 1.80664,6.54296 0,0.83008 -0.19531,1.95313 -0.19532,1.12305 -0.63477,2.44141 -0.48828,1.46484 -1.07422,2.4414 -0.53711,0.97656 -1.02539,1.41602 0.19531,0.63476 0.43945,0.92773 0.24414,0.24414 0.63477,0.24414 0.39062,0 0.78125,-0.24414 0.43945,-0.24414 1.02539,-0.73242 0.48828,1.07422 0.92773,2.24609 0.48829,1.12305 0.97657,2.2461 -0.87891,0.78125 -1.70899,1.51367 -0.83008,0.73242 -1.75781,1.41602 -1.12305,0.92773 -2.14844,1.36718 -0.97656,0.39063 -1.95312,0.39063 -1.12305,0 -1.85547,-0.53711 -0.73242,-0.53711 -1.17188,-1.51367 -1.2207,1.61132 -2.97851,2.97851 -1.70899,1.31836 -3.8086,2.19727 -1.2207,0.58594 -2.24609,0.92773 -0.97656,0.29297 -1.80664,0.29297 -0.24414,0 -0.97656,0.19531 -0.6836,0.19532 -1.12305,0.19532 -2.7832,0 -5.0293,-2.34375 -2.24609,-2.34375 -2.24609,-5.22461 0,-1.17188 0.53711,-3.07618 0.53711,-1.95312 0.53711,-2.29492 0,-0.34179 -0.24414,-0.53711 -0.19531,-0.24414 -0.58594,-0.24414 -0.24414,0 -1.17187,0.73242 -0.92774,0.73243 -2.63672,2.09961 -0.14649,0.19532 -0.3418,0.58594 -0.19531,0.39063 -0.63477,0.87891 -0.39062,-1.12305 -0.8789,-2.2461 -0.48828,-1.17187 -1.07422,-2.24609 z m 23.48633,-8.93555 q -0.24414,0.0488 -0.73242,0.53711 -0.43946,0.43946 -0.87891,1.12305 -0.68359,1.12305 -1.5625,2.44141 -0.53711,0.58593 -1.17188,0.92773 -0.58593,0.29297 -1.36718,0.43945 -0.48828,0.0488 -1.02539,0.97657 -0.53711,0.8789 -1.07422,2.58789 -0.53711,1.51367 -0.78125,2.58789 -0.24414,1.07422 -0.24414,1.80664 0,1.36719 0.68359,2.05078 0.68359,0.68359 2.09961,0.68359 2.24609,0 4.10156,-1.2207 1.9043,-1.26953 3.56446,-3.75977 0.78125,-0.92773 1.46484,-1.75781 0.39062,-0.29297 0.63476,-0.92773 0.24415,-0.6836 0.48829,-1.66016 l 0.8789,-2.7832 q -0.43945,-1.46485 -0.83008,-2.29492 -0.39062,-0.87891 -0.78125,-1.07422 -0.24414,-0.14649 -1.07421,-0.29297 -0.83008,-0.19531 -2.39258,-0.39063 z"
         style="font-style:normal;font-variant:normal;font-weight:normal;font-stretch:normal;font-size:100px;line-height:125%;font-family:Mistral;-inkscape-font-specification:'Mistral, Normal';font-variant-ligatures:normal;font-variant-caps:normal;font-variant-numeric:normal;font-feature-settings:normal;text-align:start;writing-mode:lr-tb;text-anchor:start"
         id="path4517" />
    </g>
  </g>
</svg>
